<svg xmlns="http://www.w3.org/2000/svg" xmlns:xlink="http://www.w3.org/1999/xlink" width="412" zoomAndPan="magnify" viewBox="0 0 309 112.499997" height="150" preserveAspectRatio="xMidYMid meet" version="1.0"><defs><g/><clipPath id="b3dafed944"><path d="M 252.367188 23.839844 L 265 23.839844 L 265 36.535156 L 252.367188 36.535156 Z M 252.367188 23.839844 " clip-rule="nonzero"/></clipPath></defs><g clip-path="url(#b3dafed944)"><path fill="#122e17" d="M 258.5625 23.839844 C 255.148438 23.839844 252.367188 26.621094 252.367188 30.035156 C 252.367188 33.449219 255.148438 36.230469 258.5625 36.230469 C 261.976562 36.230469 264.757812 33.449219 264.757812 30.035156 C 264.757812 26.621094 261.976562 23.839844 258.5625 23.839844 Z M 258.5625 25.078125 C 261.304688 25.078125 263.515625 27.289062 263.515625 30.035156 C 263.515625 32.78125 261.304688 34.992188 258.5625 34.992188 C 255.816406 34.992188 253.605469 32.78125 253.605469 30.035156 C 253.605469 27.289062 255.816406 25.078125 258.5625 25.078125 Z M 256.703125 27.558594 L 256.703125 32.511719 L 257.722656 32.511719 L 257.722656 30.699219 L 258.539062 30.699219 L 259.46875 32.511719 L 260.5625 32.511719 L 260.5625 32.464844 L 259.488281 30.441406 C 259.625 30.378906 259.75 30.308594 259.859375 30.222656 C 259.96875 30.140625 260.058594 30.039062 260.136719 29.929688 C 260.214844 29.816406 260.273438 29.6875 260.3125 29.542969 C 260.355469 29.398438 260.375 29.238281 260.375 29.054688 C 260.375 28.808594 260.335938 28.59375 260.25 28.40625 C 260.167969 28.222656 260.046875 28.066406 259.890625 27.941406 C 259.734375 27.816406 259.539062 27.71875 259.3125 27.652344 C 259.085938 27.589844 258.832031 27.558594 258.542969 27.558594 Z M 257.726562 28.386719 L 258.546875 28.386719 C 258.820312 28.386719 259.023438 28.449219 259.15625 28.585938 C 259.289062 28.71875 259.355469 28.902344 259.355469 29.136719 C 259.355469 29.246094 259.335938 29.347656 259.304688 29.4375 C 259.269531 29.527344 259.21875 29.605469 259.152344 29.667969 C 259.085938 29.734375 259 29.785156 258.898438 29.820312 C 258.796875 29.855469 258.679688 29.871094 258.546875 29.871094 L 257.726562 29.871094 Z M 257.726562 28.386719 " fill-opacity="1" fill-rule="nonzero"/></g><g fill="#000000" fill-opacity="1"><g transform="translate(33.1222, 68.504659)"><g><path d="M 1.4375 -47.703125 L 25.96875 -47.703125 L 25.96875 -46.203125 L 18.75 -46.203125 L 18.75 -1.5 L 21.203125 -1.5 C 25.054688 -1.5 28.128906 -2.679688 30.421875 -5.046875 C 32.722656 -7.410156 35.054688 -11.046875 37.421875 -15.953125 L 38.84375 -15.953125 L 37.546875 0 L 1.4375 0 L 1.4375 -1.5 L 5.453125 -1.5 L 5.453125 -46.203125 L 1.4375 -46.203125 Z M 1.4375 -47.703125 "/></g></g></g><g fill="#000000" fill-opacity="1"><g transform="translate(73.744977, 68.504659)"><g><path d="M 40.546875 0 L 25.015625 0 L 24.265625 -4.96875 C 23.535156 -3.15625 22.453125 -1.757812 21.015625 -0.78125 C 19.585938 0.195312 17.46875 0.6875 14.65625 0.6875 C 7.613281 0.6875 4.09375 -3.109375 4.09375 -10.703125 L 4.09375 -31.21875 L 0.265625 -31.21875 L 0.265625 -32.4375 L 16.765625 -32.4375 L 16.765625 -9.0625 C 16.765625 -6.332031 16.957031 -4.535156 17.34375 -3.671875 C 17.726562 -2.816406 18.5 -2.390625 19.65625 -2.390625 C 20.820312 -2.390625 21.859375 -3.09375 22.765625 -4.5 C 23.671875 -5.90625 24.125 -7.859375 24.125 -10.359375 L 24.125 -31.21875 L 20.984375 -31.21875 L 20.984375 -32.4375 L 36.796875 -32.4375 L 36.796875 -1.234375 L 40.546875 -1.234375 Z M 40.546875 0 "/></g></g></g><g fill="#000000" fill-opacity="1"><g transform="translate(114.981186, 68.504659)"><g><path d="M 25.5625 -18.328125 C 25.5625 -23.015625 25.332031 -26.160156 24.875 -27.765625 C 24.425781 -29.378906 23.539062 -30.1875 22.21875 -30.1875 C 20.90625 -30.1875 19.722656 -29.332031 18.671875 -27.625 C 17.628906 -25.925781 17.109375 -23.644531 17.109375 -20.78125 L 17.109375 -8.3125 C 17.109375 -6.363281 17.492188 -4.707031 18.265625 -3.34375 C 19.035156 -1.976562 20.171875 -1.296875 21.671875 -1.296875 C 23.171875 -1.296875 24.191406 -2.296875 24.734375 -4.296875 C 25.285156 -6.296875 25.5625 -9.796875 25.5625 -14.796875 Z M 16.96875 -32.4375 L 16.96875 -27.0625 C 18.738281 -31.101562 21.875 -33.125 26.375 -33.125 C 30.28125 -33.125 33.3125 -31.710938 35.46875 -28.890625 C 37.632812 -26.078125 38.71875 -21.804688 38.71875 -16.078125 C 38.71875 -10.359375 37.546875 -6.132812 35.203125 -3.40625 C 32.859375 -0.675781 29.347656 0.6875 24.671875 0.6875 C 22.492188 0.6875 20.859375 0.414062 19.765625 -0.125 C 18.671875 -0.675781 17.785156 -1.519531 17.109375 -2.65625 L 17.109375 15 L 25.90625 15 L 25.90625 16.21875 L 0.6875 16.21875 L 0.6875 15 L 4.4375 15 L 4.4375 -31.21875 L 0.8125 -31.21875 L 0.8125 -32.4375 Z M 16.96875 -32.4375 "/></g></g></g><g fill="#122e17" fill-opacity="1"><g transform="translate(155.060511, 68.504659)"><g><path d="M 0.40625 -51.109375 L 17.109375 -51.109375 L 17.109375 -1.234375 L 20.921875 -1.234375 L 20.921875 0 L 0.6875 0 L 0.6875 -1.234375 L 4.4375 -1.234375 L 4.4375 -49.890625 L 0.40625 -49.890625 Z M 0.40625 -51.109375 "/></g></g></g><g fill="#122e17" fill-opacity="1"><g transform="translate(176.598759, 68.504659)"><g><path d="M 18.609375 0.6875 C 12.742188 0.6875 8.34375 -0.820312 5.40625 -3.84375 C 2.476562 -6.875 1.015625 -11.078125 1.015625 -16.453125 C 1.015625 -21.835938 2.660156 -25.960938 5.953125 -28.828125 C 9.253906 -31.691406 13.445312 -33.125 18.53125 -33.125 C 28.851562 -33.125 33.804688 -27.941406 33.390625 -17.578125 L 14.171875 -17.578125 L 14.171875 -14.921875 C 14.171875 -10.472656 14.738281 -7.113281 15.875 -4.84375 C 17.007812 -2.570312 18.988281 -1.4375 21.8125 -1.4375 C 27.082031 -1.4375 30.535156 -4.25 32.171875 -9.875 L 33.390625 -9.671875 C 32.535156 -6.398438 30.984375 -3.851562 28.734375 -2.03125 C 26.484375 -0.21875 23.109375 0.6875 18.609375 0.6875 Z M 14.25 -18.953125 L 21.265625 -18.953125 L 21.265625 -22.28125 C 21.265625 -25.96875 21.046875 -28.476562 20.609375 -29.8125 C 20.179688 -31.15625 19.316406 -31.828125 18.015625 -31.828125 C 16.722656 -31.828125 15.769531 -31.109375 15.15625 -29.671875 C 14.550781 -28.242188 14.25 -25.78125 14.25 -22.28125 Z M 14.25 -18.953125 "/></g></g></g><g fill="#122e17" fill-opacity="1"><g transform="translate(211.768816, 68.504659)"><g><path d="M 28.015625 -35.984375 L 29.921875 -37.140625 C 30.191406 -38.554688 29.644531 -39.265625 28.28125 -39.265625 C 26.332031 -39.265625 25.359375 -37.765625 25.359375 -34.765625 C 25.359375 -33.578125 25.515625 -32.210938 25.828125 -30.671875 C 29.285156 -28.347656 31.015625 -25.378906 31.015625 -21.765625 C 31.015625 -18.160156 29.765625 -15.359375 27.265625 -13.359375 C 24.765625 -11.359375 21.378906 -10.359375 17.109375 -10.359375 C 15.335938 -10.359375 13.5 -10.539062 11.59375 -10.90625 C 9.59375 -9.632812 8.59375 -8.679688 8.59375 -8.046875 C 8.59375 -7.410156 10.046875 -7.09375 12.953125 -7.09375 L 19.90625 -7.09375 C 30.21875 -7.09375 35.375 -3.390625 35.375 4.015625 C 35.375 8.015625 33.816406 11.179688 30.703125 13.515625 C 27.585938 15.859375 22.738281 17.03125 16.15625 17.03125 C 4.925781 17.03125 -0.6875 14.601562 -0.6875 9.75 C -0.6875 7.113281 1.0625 5.296875 4.5625 4.296875 L 8.65625 6.140625 C 8.289062 7.453125 8.109375 8.695312 8.109375 9.875 C 8.109375 13.789062 11.015625 15.75 16.828125 15.75 C 20.378906 15.75 23.109375 15.085938 25.015625 13.765625 C 26.921875 12.453125 27.875 10.816406 27.875 8.859375 C 27.875 6.898438 27.296875 5.59375 26.140625 4.9375 C 24.984375 4.28125 22.675781 3.953125 19.21875 3.953125 L 12.609375 3.953125 C 8.929688 3.953125 6.296875 3.335938 4.703125 2.109375 C 3.109375 0.878906 2.3125 -0.628906 2.3125 -2.421875 C 2.3125 -4.210938 2.878906 -5.707031 4.015625 -6.90625 C 5.148438 -8.113281 7.175781 -9.601562 10.09375 -11.375 C 4.820312 -12.875 2.1875 -16.328125 2.1875 -21.734375 C 2.1875 -25.148438 3.410156 -27.898438 5.859375 -29.984375 C 8.316406 -32.078125 12 -33.125 16.90625 -33.125 C 19.851562 -33.125 22.375 -32.554688 24.46875 -31.421875 C 24.195312 -32.648438 24.0625 -33.765625 24.0625 -34.765625 C 24.0625 -37.304688 24.742188 -39.144531 26.109375 -40.28125 C 27.472656 -41.414062 28.992188 -41.984375 30.671875 -41.984375 C 32.347656 -41.984375 33.695312 -41.539062 34.71875 -40.65625 C 35.75 -39.769531 36.265625 -38.550781 36.265625 -37 C 36.265625 -35.457031 35.851562 -34.3125 35.03125 -33.5625 C 34.21875 -32.8125 33.226562 -32.4375 32.0625 -32.4375 C 30.90625 -32.4375 29.953125 -32.742188 29.203125 -33.359375 C 28.453125 -33.972656 28.054688 -34.847656 28.015625 -35.984375 Z M 13.5625 -23.234375 L 13.5625 -19.5625 C 13.5625 -16.519531 13.820312 -14.453125 14.34375 -13.359375 C 14.863281 -12.265625 15.65625 -11.71875 16.71875 -11.71875 C 17.789062 -11.71875 18.566406 -12.25 19.046875 -13.3125 C 19.523438 -14.382812 19.765625 -16.582031 19.765625 -19.90625 L 19.765625 -23.234375 C 19.765625 -26.785156 19.535156 -29.113281 19.078125 -30.21875 C 18.628906 -31.332031 17.867188 -31.890625 16.796875 -31.890625 C 15.734375 -31.890625 14.925781 -31.3125 14.375 -30.15625 C 13.832031 -29 13.5625 -26.691406 13.5625 -23.234375 Z M 13.5625 -23.234375 "/></g></g></g><g fill="#ffffff" fill-opacity="1"><g transform="translate(247.34951, 68.504659)"><g/></g></g></svg>